<svg xmlns="http://www.w3.org/2000/svg" version="1.1" xmlns:xlink="http://www.w3.org/1999/xlink" xmlns:svgjs="http://svgjs.dev/svgjs" viewBox="0 0 800 800"><defs><filter id="uuunion-blur" x="-100%" y="-100%" width="400%" height="400%" color-interpolation-filters="sRGB">
        <feGaussianBlur in="SourceGraphic" stdDeviation="7.5 0" result="blur"></feGaussianBlur>
        <feDropShadow stdDeviation="12.307692307692308" in="blur" dx="10" dy="10" flood-color="hsl(167, 52%, 78%)" flood-opacity="0.25" x="0%" y="0%" width="100%" height="100%"></feDropShadow>
      </filter><filter id="uuunion-blur2" x="-100%" y="-100%" width="400%" height="400%" color-interpolation-filters="sRGB">
        <feGaussianBlur in="SourceGraphic" stdDeviation="7.5 0" result="blur"></feGaussianBlur>
        <feDropShadow stdDeviation="12.307692307692308" in="blur" dx="-10" dy="-10" flood-color="hsl(167, 52%, 78%)" flood-opacity="0.25" x="0%" y="0%" width="100%" height="100%"></feDropShadow>
      </filter><linearGradient gradientTransform="rotate(0, 0.5, 0.5)" x1="50%" y1="0%" x2="50%" y2="100%" id="uuunion-grad"><stop stop-color="hsl(1.4, 100%, 67%)" offset="10%"></stop><stop stop-color="hsl(167, 52%, 78%)" offset="90%"></stop></linearGradient><linearGradient gradientTransform="rotate(135, 0.5, 0.5)" x1="50%" y1="0%" x2="50%" y2="100%" id="uuunion-grad2"><stop stop-color="hsl(1.4, 100%, 67%)" offset="25%"></stop><stop stop-color="hsl(167, 52%, 78%)" offset="100%"></stop></linearGradient><linearGradient gradientTransform="rotate(333, 0.5, 0.5)" x1="50%" y1="0%" x2="50%" y2="100%" id="uuunion-grad3"><stop stop-color="hsl(1.4, 100%, 67%)" offset="0%"></stop><stop stop-color="hsl(167, 52%, 78%)" offset="75%"></stop></linearGradient></defs><path d="M-78.93 -84.9Q-64.31 -81.62 -49.69 -78.08 -35.07 -74.85 -20.46 -72.45 -5.84 -71.28 8.77 -71.51 23.39 -73.13 38 -75.86 52.62 -79.25 67.24 -82.77 81.85 -85.84 96.47 -87.96 111.09 -88.79 125.71 -88.19 140.32 -86.27 154.94 -83.32 169.56 -79.84 184.18 -76.38 198.79 -73.51 213.41 -71.69 228.03 -71.22 242.64 -72.16 257.26 -74.38 271.88 -77.51 286.5 -81.04 301.11 -84.4 315.73 -87.05 330.35 -88.55 344.97 -88.67 359.58 -87.38 374.2 -84.89 388.82 -81.61 403.44 -78.07 418.05 -74.84 432.67 -72.44 447.29 -71.27 461.9 -71.52 476.52 -73.14 491.14 -75.87 505.76 -79.26 520.37 -82.78 534.99 -85.85 549.61 -87.97 564.23 -88.79 578.84 -88.19 593.46 -86.26 608.08 -83.32 622.69 -79.83 637.31 -76.38 651.93 -73.51 666.55 -71.69 681.16 -71.22 695.78 -72.17 710.4 -74.39 725.02 -77.52 739.63 -81.05 754.25 -84.41 768.87 -87.05 783.48 -88.55 798.1 -88.67 812.72 -87.37 827.34 -84.88 841.95 -81.6 856.57 -78.06 858.7 -63.01 862.16 -47.96 866.72 -32.91 872.11 -17.86 877.99 -2.81 883.99 12.23 889.75 27.28 894.9 42.33 899.12 57.38 902.15 72.43 903.81 87.48 903.98 102.53 902.67 117.57 899.94 132.62 895.98 147.67 891.02 162.72 885.37 177.77 879.39 192.82 873.45 207.87 867.91 222.92 863.13 237.97 859.4 253.02 856.94 268.07 855.92 283.12 856.4 298.17 858.34 313.22 861.63 328.27 866.06 343.32 871.36 358.37 877.19 373.42 883.2 388.47 889.01 403.52 894.26 418.56 898.62 433.61 901.83 448.66 903.67 463.71 904.05 478.76 902.93 493.81 900.38 508.86 896.56 523.91 891.72 538.96 886.15 554.01 880.19 569.06 874.22 584.11 868.61 599.16 863.71 614.21 859.82 629.26 857.19 644.31 855.97 659.36 856.25 674.41 858 689.46 861.12 704.51 865.42 719.55 870.62 734.6 876.4 749.65 882.41 764.7 888.27 779.75 893.61 794.8 898.11 809.85 901.48 824.9 903.51 839.95 904.08 855 903.16 870.05 900.79 885.1 885.45 875.76 870.12 867.11 854.78 860.54 839.44 857.13 824.1 857.43 808.76 861.38 793.42 868.35 778.08 877.21 762.74 886.52 747.4 894.77 732.06 900.63 716.72 903.14 701.38 901.9 686.04 897.1 670.7 889.54 655.36 880.43 640.02 871.24 624.68 863.48 609.34 858.39 594 856.81 578.66 858.98 563.32 864.56 547.98 872.65 532.64 881.92 517.3 890.88 501.96 898.08 486.62 902.35 471.28 902.99 455.94 899.9 440.6 893.59 425.26 885.07 409.92 875.73 394.58 867.08 379.24 860.53 363.9 857.13 348.56 857.44 333.22 861.4 317.88 868.38 302.54 877.24 287.2 886.55 271.86 894.8 256.52 900.64 241.18 903.14 225.84 901.89 210.5 897.09 195.16 889.51 179.82 880.4 164.48 871.22 149.14 863.46 133.8 858.38 118.46 856.81 103.12 858.99 87.78 864.58 72.44 872.67 57.1 881.95 41.76 890.91 26.42 898.1 11.08 902.35 -4.25 902.98 -19.59 899.89 -34.92 893.57 -50.26 885.05 -65.6 875.71 -80.94 867.06 -81.05 852.19 -81.09 837.31 -81.07 822.44 -80.98 807.56 -80.82 792.69 -80.62 777.81 -80.37 762.94 -80.11 748.06 -79.83 733.19 -79.57 718.32 -79.33 703.44 -79.13 688.57 -78.99 673.69 -78.91 658.82 -78.9 643.94 -78.95 629.07 -79.07 614.19 -79.25 599.32 -79.48 584.44 -79.73 569.57 -80 554.7 -80.28 539.82 -80.53 524.95 -80.75 510.07 -80.93 495.2 -81.04 480.32 -81.09 465.45 -81.08 450.57 -80.99 435.7 -80.85 420.82 -80.65 405.95 -80.41 391.08 -80.14 376.2 -79.87 361.33 -79.6 346.45 -79.36 331.58 -79.16 316.7 -79.01 301.83 -78.92 286.95 -78.9 272.08 -78.94 257.2 -79.05 242.33 -79.23 227.45 -79.44 212.58 -79.7 197.71 -79.97 182.83 -80.24 167.96 -80.5 153.08 -80.72 138.21 -80.91 123.33 -81.03 108.46 -81.09 93.58 -81.08 78.71 -81.01 63.83 -80.87 48.96 -80.68 34.09 -80.44 19.21 -80.18 4.34 -79.9 -10.53 -79.64 -25.4 -79.39 -40.28 -79.18 -55.15 -79.02 -70.03 -78.93 -84.9" fill="url(#uuunion-grad)"></path><path d="M-78.93 -84.9Q-79.02 -70.03 -79.18 -55.15 -79.39 -40.28 -79.64 -25.4 -79.9 -10.53 -80.18 4.34 -80.44 19.21 -80.68 34.09 -80.87 48.96 -81.01 63.83 -81.08 78.71 -81.09 93.58 -81.03 108.46 -80.91 123.33 -80.72 138.21 -80.5 153.08 -80.24 167.96 -79.97 182.83 -79.7 197.71 -79.44 212.58 -79.23 227.45 -79.05 242.33 -78.94 257.2 -78.9 272.08 -78.92 286.95 -79.01 301.83 -79.16 316.7 -79.36 331.58 -79.6 346.45 -79.87 361.33 -80.14 376.2 -80.41 391.08 -70.31 394.95 -60.21 399.18 -50.11 403.48 -40.01 407.52 -29.92 411.02 -19.82 413.71 -0.89 415.84 2.38 415.97 14.83 408.45 27.22 399.3 39.54 388.86 51.78 377.62 63.96 366.15 76.08 355.03 88.13 344.8 100.14 335.9 112.1 328.61 124.03 323.03 135.93 319.05 147.82 316.42 159.7 314.69 171.59 313.37 183.51 311.88 195.45 309.7 207.45 306.38 219.5 301.62 231.62 295.25 243.83 287.32 256.12 278.03 268.51 267.75 281.01 256.93 293.62 246.09 306.35 235.76 319.2 226.37 332.18 218.27 345.27 211.65 358.49 206.52 371.82 202.75 385.25 200.03 398.79 197.95 412.42 196.04 426.13 193.82 439.9 190.83 453.73 186.72 467.59 181.26 481.46 174.4 495.34 166.22 509.2 156.95 523.03 146.95 536.79 136.65 550.49 126.5 564.08 116.95 577.57 108.35 590.92 100.94 604.13 94.85 617.18 90.02 630.05 86.29 642.74 83.35 655.23 80.82 667.52 78.27 679.6 75.3 691.47 71.53 703.13 66.72 714.59 60.71 725.84 53.51 736.9 45.22 747.78 36.11 758.49 26.51 769.05 16.8 779.47 7.37 789.78 -1.42 800 -9.32 793.67 -26.58 787.88 -43.83 783.11 -61.09 779.77 -78.34 778.13 -95.6 778.35 -112.85 780.39 -130.11 784.09 -147.36 769.46 -145.65 754.84 -143.04 740.22 -139.94 725.59 -136.84 710.97 -134.26 696.35 -132.59 681.72 -132.1 667.1 -132.88 652.48 -134.8 637.85 -137.55 623.23 -140.7 608.61 -143.72 593.98 -146.16 579.36 -147.6 564.74 -147.83 550.11 -146.8 535.49 -144.69 520.87 -141.82 506.24 -138.66 491.62 -135.71 477 -133.45 462.37 -132.24 447.75 -132.27 433.13 -133.54 418.5 -135.84 403.88 -138.8 389.26 -141.96 374.63 -144.8 360.01 -146.88 345.39 -147.85 330.76 -147.56 316.14 -146.06 301.52 -143.59 286.89 -140.55 272.27 -137.41 257.65 -134.69 243.02 -132.82 228.4 -132.1 213.78 -132.64 199.15 -134.36 184.53 -136.98 169.91 -140.08 155.28 -143.17 140.66 -145.76 126.04 -147.41 111.41 -147.88 96.79 -147.09 82.17 -145.16 67.54 -142.41 52.92 -139.26 38.3 -136.24 23.67 -133.81 9.05 -132.38 -5.56 -132.17 -20.19 -133.2 -34.81 -135.33 -49.43 -138.2 -64.06 -141.36 -78.68 -144.3 -93.3 -146.56 -107.93 -147.76 -122.55 -147.71 -131.97 -133.89 -114.99 -118.34 -105.93 -110.74 -96.91 -102.6 -87.91 -93.97 -78.93 -84.9" fill="url(#uuunion-grad2)" filter="url(#uuunion-blur)"></path><path d="M808.23 385.08Q818.32 384.07 828.42 384.23 838.52 385.53 848.62 387.88 858.72 391.11 868.82 394.98 878.91 399.22 889.01 403.52 894.26 418.56 898.62 433.61 901.83 448.66 903.67 463.71 904.05 478.76 902.93 493.81 900.38 508.86 896.56 523.91 891.72 538.96 886.15 554.01 880.19 569.06 874.22 584.11 868.61 599.16 863.71 614.21 859.82 629.26 857.19 644.31 855.97 659.36 856.25 674.41 858 689.46 861.12 704.51 865.42 719.55 870.62 734.6 876.4 749.65 882.41 764.7 888.27 779.75 893.61 794.8 898.11 809.85 901.48 824.9 903.51 839.95 904.08 855 894.94 873.29 872.64 868.42 858.56 861.9 844.48 857.86 830.41 856.85 816.33 859 802.25 864.03 788.17 871.24 774.1 879.65 760.02 888.1 745.94 895.45 731.86 900.68 717.79 903.08 703.71 902.33 689.63 898.51 675.55 892.17 661.48 884.15 647.4 875.57 633.32 867.6 619.24 861.32 605.17 857.59 591.09 856.93 577.01 859.43 562.93 864.74 548.86 872.14 534.78 880.61 520.7 889 506.63 896.16 492.55 901.1 478.47 903.16 464.39 902.05 450.32 897.92 436.24 891.34 422.16 883.2 408.08 874.63 394.01 866.79 379.93 860.76 365.85 857.36 351.77 857.06 337.7 859.89 323.62 865.48 309.54 873.05 295.46 881.57 281.39 889.88 267.31 896.83 253.23 901.48 239.15 903.19 225.08 901.73 211 897.29 196.92 890.49 182.84 882.25 168.77 873.7 154.69 866.01 140.61 860.24 126.53 857.17 112.46 857.22 98.38 860.39 84.3 866.24 70.22 873.98 56.15 882.53 42.07 890.74 27.99 897.48 6.91 897.43 -0.04 882.89 -0.02 872.74 -0.03 862.59 -0.07 852.44 -0.13 842.29 -0.01 827.06 0.69 822 13.31 814.41 25.87 804.51 38.37 792.73 50.79 779.7 63.14 766.2 75.42 753.05 87.62 741.02 99.75 730.76 111.82 722.7 123.83 717.02 135.79 713.64 147.7 712.22 159.58 712.2 171.43 712.85 183.27 713.41 195.1 713.09 206.95 711.25 218.82 707.39 230.72 701.28 242.68 692.91 254.69 682.54 266.78 670.65 278.96 657.9 291.24 645.03 303.62 632.78 316.11 621.82 328.73 612.66 341.47 605.63 354.34 600.79 367.34 597.95 380.48 596.71 393.74 596.5 407.13 596.63 420.63 596.36 434.25 595.04 447.97 592.12 461.78 587.24 475.67 580.26 489.61 571.29 503.6 560.65 517.62 548.86 531.64 536.56 545.66 524.42 559.64 513.11 573.57 503.19 587.43 495.05 601.2 488.91 614.86 484.71 628.39 482.21 641.77 480.96 654.98 480.4 668.02 479.87 680.87 478.73 693.52 476.41 705.95 472.49 718.17 466.7 730.17 459.04 741.94 449.67 753.5 438.97 764.84 427.44 775.97 415.71 786.9 404.37 802.94 389.54 808.23 385.08" fill="url(#uuunion-grad3)" filter="url(#uuunion-blur2)"></path></svg>